<?xml version="1.0" encoding="UTF-8"?>
<svg xmlns:xhtml="http://www.w3.org/1999/xhtml" xmlns:xlink="http://www.w3.org/1999/xlink" xmlns="http://www.w3.org/2000/svg" id="mermaid-svg-110" width="100%" class="classDiagram" style="max-width: 100%;" viewBox="-50.271093750000006 -62.271093750000006 929.9640625 1206.5421875000002" height="100%"><style>#mermaid-svg-110{font-family:"trebuchet ms",verdana,arial,sans-serif;font-size:16px;fill:#ccc;}@keyframes edge-animation-frame{from{stroke-dashoffset:0;}}@keyframes dash{to{stroke-dashoffset:0;}}#mermaid-svg-110 .edge-animation-slow{stroke-dasharray:9,5!important;stroke-dashoffset:900;animation:dash 50s linear infinite;stroke-linecap:round;}#mermaid-svg-110 .edge-animation-fast{stroke-dasharray:9,5!important;stroke-dashoffset:900;animation:dash 20s linear infinite;stroke-linecap:round;}#mermaid-svg-110 .error-icon{fill:#a44141;}#mermaid-svg-110 .error-text{fill:#ddd;stroke:#ddd;}#mermaid-svg-110 .edge-thickness-normal{stroke-width:1px;}#mermaid-svg-110 .edge-thickness-thick{stroke-width:3.5px;}#mermaid-svg-110 .edge-pattern-solid{stroke-dasharray:0;}#mermaid-svg-110 .edge-thickness-invisible{stroke-width:0;fill:none;}#mermaid-svg-110 .edge-pattern-dashed{stroke-dasharray:3;}#mermaid-svg-110 .edge-pattern-dotted{stroke-dasharray:2;}#mermaid-svg-110 .marker{fill:lightgrey;stroke:lightgrey;}#mermaid-svg-110 .marker.cross{stroke:lightgrey;}#mermaid-svg-110 svg{font-family:"trebuchet ms",verdana,arial,sans-serif;font-size:16px;}#mermaid-svg-110 p{margin:0;}#mermaid-svg-110 g.classGroup text{fill:#ccc;stroke:none;font-family:"trebuchet ms",verdana,arial,sans-serif;font-size:10px;}#mermaid-svg-110 g.classGroup text .title{font-weight:bolder;}#mermaid-svg-110 .nodeLabel,#mermaid-svg-110 .edgeLabel{color:#e0dfdf;}#mermaid-svg-110 .edgeLabel .label rect{fill:#1f2020;}#mermaid-svg-110 .label text{fill:#e0dfdf;}#mermaid-svg-110 .labelBkg{background:#1f2020;}#mermaid-svg-110 .edgeLabel .label span{background:#1f2020;}#mermaid-svg-110 .classTitle{font-weight:bolder;}#mermaid-svg-110 .node rect,#mermaid-svg-110 .node circle,#mermaid-svg-110 .node ellipse,#mermaid-svg-110 .node polygon,#mermaid-svg-110 .node path{fill:#1f2020;stroke:#ccc;stroke-width:1px;}#mermaid-svg-110 .divider{stroke:#ccc;stroke-width:1;}#mermaid-svg-110 g.clickable{cursor:pointer;}#mermaid-svg-110 g.classGroup rect{fill:#1f2020;stroke:#ccc;}#mermaid-svg-110 g.classGroup line{stroke:#ccc;stroke-width:1;}#mermaid-svg-110 .classLabel .box{stroke:none;stroke-width:0;fill:#1f2020;opacity:0.5;}#mermaid-svg-110 .classLabel .label{fill:#ccc;font-size:10px;}#mermaid-svg-110 .relation{stroke:lightgrey;stroke-width:1;fill:none;}#mermaid-svg-110 .dashed-line{stroke-dasharray:3;}#mermaid-svg-110 .dotted-line{stroke-dasharray:1 2;}#mermaid-svg-110 #compositionStart,#mermaid-svg-110 .composition{fill:lightgrey!important;stroke:lightgrey!important;stroke-width:1;}#mermaid-svg-110 #compositionEnd,#mermaid-svg-110 .composition{fill:lightgrey!important;stroke:lightgrey!important;stroke-width:1;}#mermaid-svg-110 #dependencyStart,#mermaid-svg-110 .dependency{fill:lightgrey!important;stroke:lightgrey!important;stroke-width:1;}#mermaid-svg-110 #dependencyStart,#mermaid-svg-110 .dependency{fill:lightgrey!important;stroke:lightgrey!important;stroke-width:1;}#mermaid-svg-110 #extensionStart,#mermaid-svg-110 .extension{fill:transparent!important;stroke:lightgrey!important;stroke-width:1;}#mermaid-svg-110 #extensionEnd,#mermaid-svg-110 .extension{fill:transparent!important;stroke:lightgrey!important;stroke-width:1;}#mermaid-svg-110 #aggregationStart,#mermaid-svg-110 .aggregation{fill:transparent!important;stroke:lightgrey!important;stroke-width:1;}#mermaid-svg-110 #aggregationEnd,#mermaid-svg-110 .aggregation{fill:transparent!important;stroke:lightgrey!important;stroke-width:1;}#mermaid-svg-110 #lollipopStart,#mermaid-svg-110 .lollipop{fill:#1f2020!important;stroke:lightgrey!important;stroke-width:1;}#mermaid-svg-110 #lollipopEnd,#mermaid-svg-110 .lollipop{fill:#1f2020!important;stroke:lightgrey!important;stroke-width:1;}#mermaid-svg-110 .edgeTerminals{font-size:11px;line-height:initial;}#mermaid-svg-110 .classTitleText{text-anchor:middle;font-size:18px;fill:#ccc;}#mermaid-svg-110 .label-icon{display:inline-block;height:1em;overflow:visible;vertical-align:-0.125em;}#mermaid-svg-110 .node .label-icon path{fill:currentColor;stroke:revert;stroke-width:revert;}#mermaid-svg-110 :root{--mermaid-font-family:"trebuchet ms",verdana,arial,sans-serif;}</style><g><defs><marker id="mermaid-svg-110_class-aggregationStart" class="marker aggregation class" refX="18" refY="7" markerWidth="190" markerHeight="240" orient="auto"><path d="M 18,7 L9,13 L1,7 L9,1 Z"/></marker></defs><defs><marker id="mermaid-svg-110_class-aggregationEnd" class="marker aggregation class" refX="1" refY="7" markerWidth="20" markerHeight="28" orient="auto"><path d="M 18,7 L9,13 L1,7 L9,1 Z"/></marker></defs><defs><marker id="mermaid-svg-110_class-extensionStart" class="marker extension class" refX="18" refY="7" markerWidth="190" markerHeight="240" orient="auto"><path d="M 1,7 L18,13 V 1 Z"/></marker></defs><defs><marker id="mermaid-svg-110_class-extensionEnd" class="marker extension class" refX="1" refY="7" markerWidth="20" markerHeight="28" orient="auto"><path d="M 1,1 V 13 L18,7 Z"/></marker></defs><defs><marker id="mermaid-svg-110_class-compositionStart" class="marker composition class" refX="18" refY="7" markerWidth="190" markerHeight="240" orient="auto"><path d="M 18,7 L9,13 L1,7 L9,1 Z"/></marker></defs><defs><marker id="mermaid-svg-110_class-compositionEnd" class="marker composition class" refX="1" refY="7" markerWidth="20" markerHeight="28" orient="auto"><path d="M 18,7 L9,13 L1,7 L9,1 Z"/></marker></defs><defs><marker id="mermaid-svg-110_class-dependencyStart" class="marker dependency class" refX="6" refY="7" markerWidth="190" markerHeight="240" orient="auto"><path d="M 5,7 L9,13 L1,7 L9,1 Z"/></marker></defs><defs><marker id="mermaid-svg-110_class-dependencyEnd" class="marker dependency class" refX="13" refY="7" markerWidth="20" markerHeight="28" orient="auto"><path d="M 18,7 L9,13 L14,7 L9,1 Z"/></marker></defs><defs><marker id="mermaid-svg-110_class-lollipopStart" class="marker lollipop class" refX="13" refY="7" markerWidth="190" markerHeight="240" orient="auto"><circle stroke="black" fill="transparent" cx="7" cy="7" r="6"/></marker></defs><defs><marker id="mermaid-svg-110_class-lollipopEnd" class="marker lollipop class" refX="1" refY="7" markerWidth="190" markerHeight="240" orient="auto"><circle stroke="black" fill="transparent" cx="7" cy="7" r="6"/></marker></defs><g class="root"><g class="clusters"/><g class="edgePaths"><path d="M257.556,284L255.918,300.167C254.28,316.333,251.004,348.667,252.902,370.167C254.8,391.666,261.871,402.333,265.406,407.666L268.942,412.999" id="id_Loader_Game_1" class="edge-thickness-normal edge-pattern-solid relation" style="" marker-end="url(#mermaid-svg-110_class-dependencyEnd)"/><path d="M315.667,284L322.728,300.167C329.788,316.333,343.91,348.667,352.035,370.02C360.161,391.374,362.29,401.748,363.354,406.935L364.419,412.123" id="id_Loader_Game_2" class="edge-thickness-normal edge-pattern-dashed relation" style="" marker-end="url(#mermaid-svg-110_class-dependencyEnd)"/><path d="M546.494,344L546.494,350.167C546.494,356.333,546.494,368.667,543.437,380.134C540.38,391.601,534.266,402.202,531.209,407.502L528.152,412.803" id="id_Serializer_Game_3" class="edge-thickness-normal edge-pattern-solid relation" style="" marker-end="url(#mermaid-svg-110_class-dependencyEnd)"/><path d="M146.002,794.208L131.629,803.674C117.257,813.139,88.511,832.069,74.138,844.701C59.766,857.333,59.766,863.667,59.766,866.833L59.766,870" id="id_Game_GameField_4" class="edge-thickness-normal edge-pattern-solid relation" style="" marker-start="url(#mermaid-svg-110_class-compositionStart)" marker-end="url(#mermaid-svg-110_class-dependencyEnd)"/><path d="M207.921,839.256L206.123,841.213C204.325,843.171,200.729,847.085,198.931,852.209C197.133,857.333,197.133,863.667,197.133,866.833L197.133,870" id="id_Game_Player_5" class="edge-thickness-normal edge-pattern-solid relation" style="" marker-start="url(#mermaid-svg-110_class-compositionStart)" marker-end="url(#mermaid-svg-110_class-dependencyEnd)"/><path d="M337.811,843.168L337.4,844.473C336.989,845.779,336.166,848.389,335.755,852.861C335.344,857.333,335.344,863.667,335.344,866.833L335.344,870" id="id_Game_SpellsHand_6" class="edge-thickness-normal edge-pattern-solid relation" style="" marker-start="url(#mermaid-svg-110_class-compositionStart)" marker-end="url(#mermaid-svg-110_class-dependencyEnd)"/><path d="M477.181,843.168L477.592,844.473C478.003,845.779,478.826,848.389,479.237,852.861C479.648,857.333,479.648,863.667,479.648,866.833L479.648,870" id="id_Game_Weapon_7" class="edge-thickness-normal edge-pattern-solid relation" style="" marker-start="url(#mermaid-svg-110_class-compositionStart)" marker-end="url(#mermaid-svg-110_class-dependencyEnd)"/><path d="M625.943,838.676L628.013,840.73C630.084,842.784,634.226,846.892,636.296,852.113C638.367,857.333,638.367,863.667,638.367,866.833L638.367,870" id="id_Game_EnemyBuilding_8" class="edge-thickness-normal edge-pattern-solid relation" style="" marker-start="url(#mermaid-svg-110_class-compositionStart)" marker-end="url(#mermaid-svg-110_class-dependencyEnd)"/><path d="M669.426,777.834L689.923,790.028C710.42,802.223,751.413,826.611,771.91,841.972C792.406,857.333,792.406,863.667,792.406,866.833L792.406,870" id="id_Game_Enemy_9" class="edge-thickness-normal edge-pattern-solid relation" style="" marker-start="url(#mermaid-svg-110_class-compositionStart)" marker-end="url(#mermaid-svg-110_class-dependencyEnd)"/><path d="M59.766,960L59.766,964.167C59.766,968.333,59.766,976.667,59.766,984C59.766,991.333,59.766,997.667,59.766,1000.833L59.766,1004" id="id_GameField_Cell_10" class="edge-thickness-normal edge-pattern-solid relation" style="" marker-end="url(#mermaid-svg-110_class-dependencyEnd)"/></g><g class="edgeLabels"><g class="edgeLabel"><g class="label" transform="translate(0, -12)"><foreignObject width="0" height="24"><div xmlns="http://www.w3.org/1999/xhtml" style="display: table-cell; white-space: nowrap; line-height: 1.5; max-width: 200px; text-align: center;" class="labelBkg"><span style=";display: inline-block" class="edgeLabel"></span></div></foreignObject></g></g><g class="edgeLabel" transform="translate(344.40779, 349.80701)"><g class="label" transform="translate(-21.5390625, -12)"><foreignObject width="43.078125" height="24"><div xmlns="http://www.w3.org/1999/xhtml" style="display: table-cell; white-space: nowrap; line-height: 1.5; max-width: 200px; text-align: center;" class="labelBkg"><span style=";display: inline-block" class="edgeLabel"><p>friend</p></span></div></foreignObject></g></g><g class="edgeLabel"><g class="label" transform="translate(0, -12)"><foreignObject width="0" height="24"><div xmlns="http://www.w3.org/1999/xhtml" style="display: table-cell; white-space: nowrap; line-height: 1.5; max-width: 200px; text-align: center;" class="labelBkg"><span style=";display: inline-block" class="edgeLabel"></span></div></foreignObject></g></g><g class="edgeLabel"><g class="label" transform="translate(0, -12)"><foreignObject width="0" height="24"><div xmlns="http://www.w3.org/1999/xhtml" style="display: table-cell; white-space: nowrap; line-height: 1.5; max-width: 200px; text-align: center;" class="labelBkg"><span style=";display: inline-block" class="edgeLabel"></span></div></foreignObject></g></g><g class="edgeLabel"><g class="label" transform="translate(0, -12)"><foreignObject width="0" height="24"><div xmlns="http://www.w3.org/1999/xhtml" style="display: table-cell; white-space: nowrap; line-height: 1.5; max-width: 200px; text-align: center;" class="labelBkg"><span style=";display: inline-block" class="edgeLabel"></span></div></foreignObject></g></g><g class="edgeLabel"><g class="label" transform="translate(0, -12)"><foreignObject width="0" height="24"><div xmlns="http://www.w3.org/1999/xhtml" style="display: table-cell; white-space: nowrap; line-height: 1.5; max-width: 200px; text-align: center;" class="labelBkg"><span style=";display: inline-block" class="edgeLabel"></span></div></foreignObject></g></g><g class="edgeLabel"><g class="label" transform="translate(0, -12)"><foreignObject width="0" height="24"><div xmlns="http://www.w3.org/1999/xhtml" style="display: table-cell; white-space: nowrap; line-height: 1.5; max-width: 200px; text-align: center;" class="labelBkg"><span style=";display: inline-block" class="edgeLabel"></span></div></foreignObject></g></g><g class="edgeLabel"><g class="label" transform="translate(0, -12)"><foreignObject width="0" height="24"><div xmlns="http://www.w3.org/1999/xhtml" style="display: table-cell; white-space: nowrap; line-height: 1.5; max-width: 200px; text-align: center;" class="labelBkg"><span style=";display: inline-block" class="edgeLabel"></span></div></foreignObject></g></g><g class="edgeLabel"><g class="label" transform="translate(0, -12)"><foreignObject width="0" height="24"><div xmlns="http://www.w3.org/1999/xhtml" style="display: table-cell; white-space: nowrap; line-height: 1.5; max-width: 200px; text-align: center;" class="labelBkg"><span style=";display: inline-block" class="edgeLabel"></span></div></foreignObject></g></g><g class="edgeLabel"><g class="label" transform="translate(0, -12)"><foreignObject width="0" height="24"><div xmlns="http://www.w3.org/1999/xhtml" style="display: table-cell; white-space: nowrap; line-height: 1.5; max-width: 200px; text-align: center;" class="labelBkg"><span style=";display: inline-block" class="edgeLabel"></span></div></foreignObject></g></g><g class="edgeTerminals" transform="translate(797.5333115632144, 851.8269787062526)"><g class="inner" transform="translate(0, 0)"/><foreignObject style="width: 36px; height: 12px;"><div xmlns="http://www.w3.org/1999/xhtml" style="display: inline-block; padding-right: 1px; white-space: nowrap;"><span class="edgeLabel" style=";display: inline-block">0..*</span></div></foreignObject></g><g class="edgeTerminals" transform="translate(69.76562749999985, 987.5000021428572)"><g class="inner" transform="translate(0, 0)"/><foreignObject style="width: 36px; height: 12px;"><div xmlns="http://www.w3.org/1999/xhtml" style="display: inline-block; padding-right: 1px; white-space: nowrap;"><span class="edgeLabel" style=";display: inline-block">0..*</span></div></foreignObject></g></g><g class="nodes"><g class="node default" id="classId-Loader-3257" transform="translate(268.498046875, 176)"><g class="basic label-container"><path d="M-90.2109375 -108 L90.2109375 -108 L90.2109375 108 L-90.2109375 108" stroke="none" stroke-width="0" fill="#1f2020" style=""/><path d="M-90.2109375 -108 C-46.81268764239929 -108, -3.4144377847985794 -108, 90.2109375 -108 M-90.2109375 -108 C-32.349622220194604 -108, 25.511693059610792 -108, 90.2109375 -108 M90.2109375 -108 C90.2109375 -40.7578871331573, 90.2109375 26.484225733685406, 90.2109375 108 M90.2109375 -108 C90.2109375 -31.04531102581919, 90.2109375 45.90937794836162, 90.2109375 108 M90.2109375 108 C26.397210457562238 108, -37.416516584875524 108, -90.2109375 108 M90.2109375 108 C34.42064714480205 108, -21.369643210395907 108, -90.2109375 108 M-90.2109375 108 C-90.2109375 39.77602207664657, -90.2109375 -28.44795584670686, -90.2109375 -108 M-90.2109375 108 C-90.2109375 32.993715705263384, -90.2109375 -42.01256858947323, -90.2109375 -108" stroke="#ccc" stroke-width="1.3" fill="none" stroke-dasharray="0 0" style=""/></g><g class="annotation-group text" transform="translate(0, -84)"/><g class="label-group text" transform="translate(-25.875, -84)"><g class="label" style="font-weight: bolder" transform="translate(0,-12)"><foreignObject width="51.75" height="24"><div xmlns="http://www.w3.org/1999/xhtml" style="display: table-cell; white-space: nowrap; line-height: 1.5; max-width: 103px; text-align: center;"><span class="nodeLabel markdown-node-label" style=""><p>Loader</p></span></div></foreignObject></g></g><g class="members-group text" transform="translate(-78.2109375, -36)"><g class="label" style="" transform="translate(0,-12)"><foreignObject width="89.984375" height="24"><div xmlns="http://www.w3.org/1999/xhtml" style="display: table-cell; white-space: nowrap; line-height: 1.5; max-width: 149px; text-align: center;"><span class="nodeLabel markdown-node-label" style=""><p>-fstream file</p></span></div></foreignObject></g></g><g class="methods-group text" transform="translate(-78.2109375, 12)"><g class="label" style="" transform="translate(0,-12)"><foreignObject width="69.09375" height="24"><div xmlns="http://www.w3.org/1999/xhtml" style="display: table-cell; white-space: nowrap; line-height: 1.5; max-width: 131px; text-align: center;"><span class="nodeLabel markdown-node-label" style=""><p>+Loader()</p></span></div></foreignObject></g><g class="label" style="" transform="translate(0,12)"><foreignObject width="77.484375" height="24"><div xmlns="http://www.w3.org/1999/xhtml" style="display: table-cell; white-space: nowrap; line-height: 1.5; max-width: 141px; text-align: center;"><span class="nodeLabel markdown-node-label" style=""><p>+~Loader()</p></span></div></foreignObject></g><g class="label" style="font-style:italic;" transform="translate(0,36)"><foreignObject width="107.796875" height="24"><div xmlns="http://www.w3.org/1999/xhtml" style="display: table-cell; white-space: nowrap; line-height: 1.5; max-width: 168px; text-align: center;"><span class="nodeLabel markdown-node-label" style=""><p>+load() : Game</p></span></div></foreignObject></g><g class="label" style="" transform="translate(0,60)"><foreignObject width="130.546875" height="24"><div xmlns="http://www.w3.org/1999/xhtml" style="display: table-cell; white-space: nowrap; line-height: 1.5; max-width: 192px; text-align: center;"><span class="nodeLabel markdown-node-label" style=""><p>+can_load() : bool</p></span></div></foreignObject></g></g><g class="divider" style=""><path d="M-90.2109375 -60 C-30.535124714979077 -60, 29.140688070041847 -60, 90.2109375 -60 M-90.2109375 -60 C-37.065030235151355 -60, 16.08087702969729 -60, 90.2109375 -60" stroke="#ccc" stroke-width="1.3" fill="none" stroke-dasharray="0 0" style=""/></g><g class="divider" style=""><path d="M-90.2109375 -12 C-42.45346223222771 -12, 5.304013035544585 -12, 90.2109375 -12 M-90.2109375 -12 C-34.85334656822193 -12, 20.50424436355614 -12, 90.2109375 -12" stroke="#ccc" stroke-width="1.3" fill="none" stroke-dasharray="0 0" style=""/></g></g><g class="node default" id="classId-Serializer-3258" transform="translate(546.494140625, 176)"><g class="basic label-container"><path d="M-137.78515625 -168 L137.78515625 -168 L137.78515625 168 L-137.78515625 168" stroke="none" stroke-width="0" fill="#1f2020" style=""/><path d="M-137.78515625 -168 C-73.64003311141836 -168, -9.494909972836723 -168, 137.78515625 -168 M-137.78515625 -168 C-41.29502193891241 -168, 55.195112372175174 -168, 137.78515625 -168 M137.78515625 -168 C137.78515625 -52.50333137973823, 137.78515625 62.993337240523545, 137.78515625 168 M137.78515625 -168 C137.78515625 -36.41109818597144, 137.78515625 95.17780362805712, 137.78515625 168 M137.78515625 168 C74.72568277798297 168, 11.66620930596595 168, -137.78515625 168 M137.78515625 168 C33.35204991875533 168, -71.08105641248935 168, -137.78515625 168 M-137.78515625 168 C-137.78515625 83.54595868087539, -137.78515625 -0.9080826382492262, -137.78515625 -168 M-137.78515625 168 C-137.78515625 40.33028211008313, -137.78515625 -87.33943577983374, -137.78515625 -168" stroke="#ccc" stroke-width="1.3" fill="none" stroke-dasharray="0 0" style=""/></g><g class="annotation-group text" transform="translate(0, -144)"/><g class="label-group text" transform="translate(-35.7421875, -144)"><g class="label" style="font-weight: bolder" transform="translate(0,-12)"><foreignObject width="71.484375" height="24"><div xmlns="http://www.w3.org/1999/xhtml" style="display: table-cell; white-space: nowrap; line-height: 1.5; max-width: 120px; text-align: center;"><span class="nodeLabel markdown-node-label" style=""><p>Serializer</p></span></div></foreignObject></g></g><g class="members-group text" transform="translate(-125.78515625, -96)"><g class="label" style="" transform="translate(0,-12)"><foreignObject width="70.046875" height="24"><div xmlns="http://www.w3.org/1999/xhtml" style="display: table-cell; white-space: nowrap; line-height: 1.5; max-width: 130px; text-align: center;"><span class="nodeLabel markdown-node-label" style=""><p>-json json</p></span></div></foreignObject></g><g class="label" style="" transform="translate(0,12)"><foreignObject width="96.25" height="24"><div xmlns="http://www.w3.org/1999/xhtml" style="display: table-cell; white-space: nowrap; line-height: 1.5; max-width: 162px; text-align: center;"><span class="nodeLabel markdown-node-label" style=""><p>-Game* game</p></span></div></foreignObject></g><g class="label" style="" transform="translate(0,36)"><foreignObject width="89.984375" height="24"><div xmlns="http://www.w3.org/1999/xhtml" style="display: table-cell; white-space: nowrap; line-height: 1.5; max-width: 149px; text-align: center;"><span class="nodeLabel markdown-node-label" style=""><p>-fstream file</p></span></div></foreignObject></g></g><g class="methods-group text" transform="translate(-125.78515625, 0)"><g class="label" style="" transform="translate(0,-12)"><foreignObject width="177.953125" height="24"><div xmlns="http://www.w3.org/1999/xhtml" style="display: table-cell; white-space: nowrap; line-height: 1.5; max-width: 247px; text-align: center;"><span class="nodeLabel markdown-node-label" style=""><p>+Serializer(Game* game)</p></span></div></foreignObject></g><g class="label" style="" transform="translate(0,12)"><foreignObject width="95.96875" height="24"><div xmlns="http://www.w3.org/1999/xhtml" style="display: table-cell; white-space: nowrap; line-height: 1.5; max-width: 159px; text-align: center;"><span class="nodeLabel markdown-node-label" style=""><p>+~Serializer()</p></span></div></foreignObject></g><g class="label" style="" transform="translate(0,36)"><foreignObject width="97" height="24"><div xmlns="http://www.w3.org/1999/xhtml" style="display: table-cell; white-space: nowrap; line-height: 1.5; max-width: 160px; text-align: center;"><span class="nodeLabel markdown-node-label" style=""><p>+save() : void</p></span></div></foreignObject></g><g class="label" style="" transform="translate(0,60)"><foreignObject width="135.71875" height="24"><div xmlns="http://www.w3.org/1999/xhtml" style="display: table-cell; white-space: nowrap; line-height: 1.5; max-width: 197px; text-align: center;"><span class="nodeLabel markdown-node-label" style=""><p>-save_field() : void</p></span></div></foreignObject></g><g class="label" style="" transform="translate(0,84)"><foreignObject width="147.75" height="24"><div xmlns="http://www.w3.org/1999/xhtml" style="display: table-cell; white-space: nowrap; line-height: 1.5; max-width: 211px; text-align: center;"><span class="nodeLabel markdown-node-label" style=""><p>-save_player() : void</p></span></div></foreignObject></g><g class="label" style="" transform="translate(0,108)"><foreignObject width="162.125" height="24"><div xmlns="http://www.w3.org/1999/xhtml" style="display: table-cell; white-space: nowrap; line-height: 1.5; max-width: 227px; text-align: center;"><span class="nodeLabel markdown-node-label" style=""><p>-save_emenies() : void</p></span></div></foreignObject></g><g class="label" style="" transform="translate(0,132)"><foreignObject width="215.828125" height="24"><div xmlns="http://www.w3.org/1999/xhtml" style="display: table-cell; white-space: nowrap; line-height: 1.5; max-width: 282px; text-align: center;"><span class="nodeLabel markdown-node-label" style=""><p>-save_enemy_building() : void</p></span></div></foreignObject></g></g><g class="divider" style=""><path d="M-137.78515625 -120 C-67.51361390576275 -120, 2.7579284384744938 -120, 137.78515625 -120 M-137.78515625 -120 C-75.03929709352627 -120, -12.293437937052559 -120, 137.78515625 -120" stroke="#ccc" stroke-width="1.3" fill="none" stroke-dasharray="0 0" style=""/></g><g class="divider" style=""><path d="M-137.78515625 -24 C-51.51772582007348 -24, 34.74970460985304 -24, 137.78515625 -24 M-137.78515625 -24 C-67.15135362988094 -24, 3.4824489902381117 -24, 137.78515625 -24" stroke="#ccc" stroke-width="1.3" fill="none" stroke-dasharray="0 0" style=""/></g></g><g class="node default" id="classId-Game-3259" transform="translate(407.49609375, 622)"><g class="basic label-container"><path d="M-246.4609375 -204 L246.4609375 -204 L246.4609375 204 L-246.4609375 204" stroke="none" stroke-width="0" fill="#1f2020" style=""/><path d="M-246.4609375 -204 C-82.42578761090161 -204, 81.60936227819678 -204, 246.4609375 -204 M-246.4609375 -204 C-89.09042266723705 -204, 68.2800921655259 -204, 246.4609375 -204 M246.4609375 -204 C246.4609375 -109.619101519026, 246.4609375 -15.238203038052006, 246.4609375 204 M246.4609375 -204 C246.4609375 -58.57633771986099, 246.4609375 86.84732456027803, 246.4609375 204 M246.4609375 204 C61.60734766545605 204, -123.2462421690879 204, -246.4609375 204 M246.4609375 204 C123.41477867500873 204, 0.3686198500174669 204, -246.4609375 204 M-246.4609375 204 C-246.4609375 87.21576692712738, -246.4609375 -29.568466145745248, -246.4609375 -204 M-246.4609375 204 C-246.4609375 59.24746695742775, -246.4609375 -85.5050660851445, -246.4609375 -204" stroke="#ccc" stroke-width="1.3" fill="none" stroke-dasharray="0 0" style=""/></g><g class="annotation-group text" transform="translate(0, -180)"/><g class="label-group text" transform="translate(-21.109375, -180)"><g class="label" style="font-weight: bolder" transform="translate(0,-12)"><foreignObject width="42.21875" height="24"><div xmlns="http://www.w3.org/1999/xhtml" style="display: table-cell; white-space: nowrap; line-height: 1.5; max-width: 94px; text-align: center;"><span class="nodeLabel markdown-node-label" style=""><p>Game</p></span></div></foreignObject></g></g><g class="members-group text" transform="translate(-234.4609375, -132)"><g class="label" style="" transform="translate(0,-12)"><foreignObject width="128.484375" height="24"><div xmlns="http://www.w3.org/1999/xhtml" style="display: table-cell; white-space: nowrap; line-height: 1.5; max-width: 192px; text-align: center;"><span class="nodeLabel markdown-node-label" style=""><p>+GameField* field</p></span></div></foreignObject></g><g class="label" style="" transform="translate(0,12)"><foreignObject width="108.84375" height="24"><div xmlns="http://www.w3.org/1999/xhtml" style="display: table-cell; white-space: nowrap; line-height: 1.5; max-width: 173px; text-align: center;"><span class="nodeLabel markdown-node-label" style=""><p>+Player* player</p></span></div></foreignObject></g><g class="label" style="" transform="translate(0,36)"><foreignObject width="180.09375" height="24"><div xmlns="http://www.w3.org/1999/xhtml" style="display: table-cell; white-space: nowrap; line-height: 1.5; max-width: 253px; text-align: center;"><span class="nodeLabel markdown-node-label" style=""><p>+SpellsHand* spells_hand</p></span></div></foreignObject></g><g class="label" style="" transform="translate(0,60)"><foreignObject width="130.640625" height="24"><div xmlns="http://www.w3.org/1999/xhtml" style="display: table-cell; white-space: nowrap; line-height: 1.5; max-width: 202px; text-align: center;"><span class="nodeLabel markdown-node-label" style=""><p>+Weapon* weapon</p></span></div></foreignObject></g><g class="label" style="" transform="translate(0,84)"><foreignObject width="236.578125" height="24"><div xmlns="http://www.w3.org/1999/xhtml" style="display: table-cell; white-space: nowrap; line-height: 1.5; max-width: 309px; text-align: center;"><span class="nodeLabel markdown-node-label" style=""><p>+EnemyBuilding* enemy_building</p></span></div></foreignObject></g><g class="label" style="" transform="translate(0,108)"><foreignObject width="193.828125" height="24"><div xmlns="http://www.w3.org/1999/xhtml" style="display: table-cell; white-space: nowrap; line-height: 1.5; max-width: 305px; text-align: center;"><span class="nodeLabel markdown-node-label" style=""><p>+vector&lt;Enemy*&gt;* enemies</p></span></div></foreignObject></g></g><g class="methods-group text" transform="translate(-234.4609375, 36)"><g class="label" style="" transform="translate(0,-12)"><foreignObject width="287.71875" height="24"><div xmlns="http://www.w3.org/1999/xhtml" style="display: table-cell; white-space: nowrap; line-height: 1.5; max-width: 347px; text-align: center;"><span class="nodeLabel markdown-node-label" style=""><p>+Game(int height, int width, int period)</p></span></div></foreignObject></g><g class="label" style="" transform="translate(0,12)"><foreignObject width="69.765625" height="24"><div xmlns="http://www.w3.org/1999/xhtml" style="display: table-cell; white-space: nowrap; line-height: 1.5; max-width: 133px; text-align: center;"><span class="nodeLabel markdown-node-label" style=""><p>+~Game()</p></span></div></foreignObject></g><g class="label" style="font-style:italic;" transform="translate(0,36)"><foreignObject width="278.1875" height="24"><div xmlns="http://www.w3.org/1999/xhtml" style="display: table-cell; white-space: nowrap; line-height: 1.5; max-width: 344px; text-align: center;"><span class="nodeLabel markdown-node-label" style=""><p>+static create_random_game() : Game</p></span></div></foreignObject></g><g class="label" style="font-style:italic;" transform="translate(0,60)"><foreignObject width="254.234375" height="24"><div xmlns="http://www.w3.org/1999/xhtml" style="display: table-cell; white-space: nowrap; line-height: 1.5; max-width: 319px; text-align: center;"><span class="nodeLabel markdown-node-label" style=""><p>+static create_user_game() : Game</p></span></div></foreignObject></g><g class="label" style="" transform="translate(0,84)"><foreignObject width="248.8125" height="24"><div xmlns="http://www.w3.org/1999/xhtml" style="display: table-cell; white-space: nowrap; line-height: 1.5; max-width: 350px; text-align: center;"><span class="nodeLabel markdown-node-label" style=""><p>+get_attack_area() : vector&lt;Cell*&gt;</p></span></div></foreignObject></g><g class="label" style="" transform="translate(0,108)"><foreignObject width="196.453125" height="24"><div xmlns="http://www.w3.org/1999/xhtml" style="display: table-cell; white-space: nowrap; line-height: 1.5; max-width: 256px; text-align: center;"><span class="nodeLabel markdown-node-label" style=""><p>+get_attack_damage() : int</p></span></div></foreignObject></g><g class="label" style="" transform="translate(0,132)"><foreignObject width="447.8125" height="24"><div xmlns="http://www.w3.org/1999/xhtml" style="display: table-cell; white-space: nowrap; line-height: 1.5; max-width: 583px; text-align: center;"><span class="nodeLabel markdown-node-label" style=""><p>#Game(GameField*, Player*, vector&lt;Enemy*&gt;<em>, EnemyBuilding</em>)</p></span></div></foreignObject></g></g><g class="divider" style=""><path d="M-246.4609375 -156 C-92.19576901308912 -156, 62.06939947382176 -156, 246.4609375 -156 M-246.4609375 -156 C-108.55162028161135 -156, 29.3576969367773 -156, 246.4609375 -156" stroke="#ccc" stroke-width="1.3" fill="none" stroke-dasharray="0 0" style=""/></g><g class="divider" style=""><path d="M-246.4609375 12 C-138.45185706881702 12, -30.44277663763404 12, 246.4609375 12 M-246.4609375 12 C-71.53918477203518 12, 103.38256795592963 12, 246.4609375 12" stroke="#ccc" stroke-width="1.3" fill="none" stroke-dasharray="0 0" style=""/></g></g><g class="node default" id="classId-GameField-3260" transform="translate(59.765625, 918)"><g class="basic label-container"><path d="M-51.765625 -42 L51.765625 -42 L51.765625 42 L-51.765625 42" stroke="none" stroke-width="0" fill="#1f2020" style=""/><path d="M-51.765625 -42 C-18.04568854812277 -42, 15.674247903754463 -42, 51.765625 -42 M-51.765625 -42 C-16.17101180594046 -42, 19.42360138811908 -42, 51.765625 -42 M51.765625 -42 C51.765625 -16.86783105885552, 51.765625 8.264337882288963, 51.765625 42 M51.765625 -42 C51.765625 -8.542898228764294, 51.765625 24.914203542471412, 51.765625 42 M51.765625 42 C12.227747322256711 42, -27.310130355486578 42, -51.765625 42 M51.765625 42 C11.49967085307184 42, -28.76628329385632 42, -51.765625 42 M-51.765625 42 C-51.765625 21.64368553757439, -51.765625 1.2873710751487835, -51.765625 -42 M-51.765625 42 C-51.765625 8.817434079494063, -51.765625 -24.365131841011873, -51.765625 -42" stroke="#ccc" stroke-width="1.3" fill="none" stroke-dasharray="0 0" style=""/></g><g class="annotation-group text" transform="translate(0, -18)"/><g class="label-group text" transform="translate(-39.765625, -18)"><g class="label" style="font-weight: bolder" transform="translate(0,-12)"><foreignObject width="79.53125" height="24"><div xmlns="http://www.w3.org/1999/xhtml" style="display: table-cell; white-space: nowrap; line-height: 1.5; max-width: 131px; text-align: center;"><span class="nodeLabel markdown-node-label" style=""><p>GameField</p></span></div></foreignObject></g></g><g class="members-group text" transform="translate(-39.765625, 30)"/><g class="methods-group text" transform="translate(-39.765625, 60)"/><g class="divider" style=""><path d="M-51.765625 6 C-14.033185676675245 6, 23.69925364664951 6, 51.765625 6 M-51.765625 6 C-21.82788247066506 6, 8.10986005866988 6, 51.765625 6" stroke="#ccc" stroke-width="1.3" fill="none" stroke-dasharray="0 0" style=""/></g><g class="divider" style=""><path d="M-51.765625 24 C-27.64444364632865 24, -3.5232622926573 24, 51.765625 24 M-51.765625 24 C-18.624867716167472 24, 14.515889567665056 24, 51.765625 24" stroke="#ccc" stroke-width="1.3" fill="none" stroke-dasharray="0 0" style=""/></g></g><g class="node default" id="classId-Cell-3261" transform="translate(59.765625, 1052)"><g class="basic label-container"><path d="M-26.2109375 -42 L26.2109375 -42 L26.2109375 42 L-26.2109375 42" stroke="none" stroke-width="0" fill="#1f2020" style=""/><path d="M-26.2109375 -42 C-6.087941380690836 -42, 14.035054738618328 -42, 26.2109375 -42 M-26.2109375 -42 C-14.474591405483286 -42, -2.7382453109665725 -42, 26.2109375 -42 M26.2109375 -42 C26.2109375 -11.507009640548244, 26.2109375 18.985980718903512, 26.2109375 42 M26.2109375 -42 C26.2109375 -10.275530047113467, 26.2109375 21.448939905773067, 26.2109375 42 M26.2109375 42 C12.29747499344352 42, -1.6159875131129589 42, -26.2109375 42 M26.2109375 42 C12.680358753983073 42, -0.8502199920338533 42, -26.2109375 42 M-26.2109375 42 C-26.2109375 12.354079228793967, -26.2109375 -17.291841542412065, -26.2109375 -42 M-26.2109375 42 C-26.2109375 14.816361528600748, -26.2109375 -12.367276942798505, -26.2109375 -42" stroke="#ccc" stroke-width="1.3" fill="none" stroke-dasharray="0 0" style=""/></g><g class="annotation-group text" transform="translate(0, -18)"/><g class="label-group text" transform="translate(-14.2109375, -18)"><g class="label" style="font-weight: bolder" transform="translate(0,-12)"><foreignObject width="28.421875" height="24"><div xmlns="http://www.w3.org/1999/xhtml" style="display: table-cell; white-space: nowrap; line-height: 1.5; max-width: 79px; text-align: center;"><span class="nodeLabel markdown-node-label" style=""><p>Cell</p></span></div></foreignObject></g></g><g class="members-group text" transform="translate(-14.2109375, 30)"/><g class="methods-group text" transform="translate(-14.2109375, 60)"/><g class="divider" style=""><path d="M-26.2109375 6 C-9.852041931439942 6, 6.506853637120116 6, 26.2109375 6 M-26.2109375 6 C-6.2894631310848865 6, 13.632011237830227 6, 26.2109375 6" stroke="#ccc" stroke-width="1.3" fill="none" stroke-dasharray="0 0" style=""/></g><g class="divider" style=""><path d="M-26.2109375 24 C-6.466371925429513 24, 13.278193649140974 24, 26.2109375 24 M-26.2109375 24 C-11.208694328244105 24, 3.7935488435117897 24, 26.2109375 24" stroke="#ccc" stroke-width="1.3" fill="none" stroke-dasharray="0 0" style=""/></g></g><g class="node default" id="classId-Player-3262" transform="translate(197.1328125, 918)"><g class="basic label-container"><path d="M-35.6015625 -42 L35.6015625 -42 L35.6015625 42 L-35.6015625 42" stroke="none" stroke-width="0" fill="#1f2020" style=""/><path d="M-35.6015625 -42 C-7.768661994510055 -42, 20.06423851097989 -42, 35.6015625 -42 M-35.6015625 -42 C-16.08821240012811 -42, 3.425137699743779 -42, 35.6015625 -42 M35.6015625 -42 C35.6015625 -19.72248740038677, 35.6015625 2.5550251992264634, 35.6015625 42 M35.6015625 -42 C35.6015625 -20.371147560814656, 35.6015625 1.2577048783706886, 35.6015625 42 M35.6015625 42 C12.334175027808225 42, -10.93321244438355 42, -35.6015625 42 M35.6015625 42 C20.999816968231634 42, 6.398071436463269 42, -35.6015625 42 M-35.6015625 42 C-35.6015625 18.838736240694633, -35.6015625 -4.322527518610734, -35.6015625 -42 M-35.6015625 42 C-35.6015625 21.74413930319648, -35.6015625 1.48827860639296, -35.6015625 -42" stroke="#ccc" stroke-width="1.3" fill="none" stroke-dasharray="0 0" style=""/></g><g class="annotation-group text" transform="translate(0, -18)"/><g class="label-group text" transform="translate(-23.6015625, -18)"><g class="label" style="font-weight: bolder" transform="translate(0,-12)"><foreignObject width="47.203125" height="24"><div xmlns="http://www.w3.org/1999/xhtml" style="display: table-cell; white-space: nowrap; line-height: 1.5; max-width: 97px; text-align: center;"><span class="nodeLabel markdown-node-label" style=""><p>Player</p></span></div></foreignObject></g></g><g class="members-group text" transform="translate(-23.6015625, 30)"/><g class="methods-group text" transform="translate(-23.6015625, 60)"/><g class="divider" style=""><path d="M-35.6015625 6 C-11.598838396051583 6, 12.403885707896833 6, 35.6015625 6 M-35.6015625 6 C-7.360161414916995 6, 20.88123967016601 6, 35.6015625 6" stroke="#ccc" stroke-width="1.3" fill="none" stroke-dasharray="0 0" style=""/></g><g class="divider" style=""><path d="M-35.6015625 24 C-18.667107467459353 24, -1.7326524349187054 24, 35.6015625 24 M-35.6015625 24 C-18.073846990674284 24, -0.5461314813485671 24, 35.6015625 24" stroke="#ccc" stroke-width="1.3" fill="none" stroke-dasharray="0 0" style=""/></g></g><g class="node default" id="classId-SpellsHand-3263" transform="translate(335.34375, 918)"><g class="basic label-container"><path d="M-52.609375 -42 L52.609375 -42 L52.609375 42 L-52.609375 42" stroke="none" stroke-width="0" fill="#1f2020" style=""/><path d="M-52.609375 -42 C-23.082854333358622 -42, 6.443666333282756 -42, 52.609375 -42 M-52.609375 -42 C-19.657621955939014 -42, 13.294131088121972 -42, 52.609375 -42 M52.609375 -42 C52.609375 -10.748034983937991, 52.609375 20.503930032124018, 52.609375 42 M52.609375 -42 C52.609375 -10.727224720581638, 52.609375 20.545550558836723, 52.609375 42 M52.609375 42 C25.02277818273785 42, -2.563818634524303 42, -52.609375 42 M52.609375 42 C29.335510591056295 42, 6.0616461821125895 42, -52.609375 42 M-52.609375 42 C-52.609375 18.046082186624712, -52.609375 -5.907835626750575, -52.609375 -42 M-52.609375 42 C-52.609375 13.32925654867173, -52.609375 -15.341486902656541, -52.609375 -42" stroke="#ccc" stroke-width="1.3" fill="none" stroke-dasharray="0 0" style=""/></g><g class="annotation-group text" transform="translate(0, -18)"/><g class="label-group text" transform="translate(-40.609375, -18)"><g class="label" style="font-weight: bolder" transform="translate(0,-12)"><foreignObject width="81.21875" height="24"><div xmlns="http://www.w3.org/1999/xhtml" style="display: table-cell; white-space: nowrap; line-height: 1.5; max-width: 136px; text-align: center;"><span class="nodeLabel markdown-node-label" style=""><p>SpellsHand</p></span></div></foreignObject></g></g><g class="members-group text" transform="translate(-40.609375, 30)"/><g class="methods-group text" transform="translate(-40.609375, 60)"/><g class="divider" style=""><path d="M-52.609375 6 C-24.035855287728157 6, 4.537664424543685 6, 52.609375 6 M-52.609375 6 C-13.330765670383215 6, 25.94784365923357 6, 52.609375 6" stroke="#ccc" stroke-width="1.3" fill="none" stroke-dasharray="0 0" style=""/></g><g class="divider" style=""><path d="M-52.609375 24 C-23.035505468620855 24, 6.538364062758291 24, 52.609375 24 M-52.609375 24 C-16.322095585046533 24, 19.965183829906934 24, 52.609375 24" stroke="#ccc" stroke-width="1.3" fill="none" stroke-dasharray="0 0" style=""/></g></g><g class="node default" id="classId-Weapon-3264" transform="translate(479.6484375, 918)"><g class="basic label-container"><path d="M-41.6953125 -42 L41.6953125 -42 L41.6953125 42 L-41.6953125 42" stroke="none" stroke-width="0" fill="#1f2020" style=""/><path d="M-41.6953125 -42 C-10.84959732271004 -42, 19.99611785457992 -42, 41.6953125 -42 M-41.6953125 -42 C-16.584496845406854 -42, 8.526318809186293 -42, 41.6953125 -42 M41.6953125 -42 C41.6953125 -23.8622400590564, 41.6953125 -5.724480118112801, 41.6953125 42 M41.6953125 -42 C41.6953125 -13.789143585004084, 41.6953125 14.421712829991833, 41.6953125 42 M41.6953125 42 C24.437217058362833 42, 7.179121616725666 42, -41.6953125 42 M41.6953125 42 C13.605068908694808 42, -14.485174682610385 42, -41.6953125 42 M-41.6953125 42 C-41.6953125 13.162339339621433, -41.6953125 -15.675321320757135, -41.6953125 -42 M-41.6953125 42 C-41.6953125 16.95209851561248, -41.6953125 -8.09580296877504, -41.6953125 -42" stroke="#ccc" stroke-width="1.3" fill="none" stroke-dasharray="0 0" style=""/></g><g class="annotation-group text" transform="translate(0, -18)"/><g class="label-group text" transform="translate(-29.6953125, -18)"><g class="label" style="font-weight: bolder" transform="translate(0,-12)"><foreignObject width="59.390625" height="24"><div xmlns="http://www.w3.org/1999/xhtml" style="display: table-cell; white-space: nowrap; line-height: 1.5; max-width: 113px; text-align: center;"><span class="nodeLabel markdown-node-label" style=""><p>Weapon</p></span></div></foreignObject></g></g><g class="members-group text" transform="translate(-29.6953125, 30)"/><g class="methods-group text" transform="translate(-29.6953125, 60)"/><g class="divider" style=""><path d="M-41.6953125 6 C-12.094392979743525 6, 17.50652654051295 6, 41.6953125 6 M-41.6953125 6 C-17.5751258036774 6, 6.545060892645203 6, 41.6953125 6" stroke="#ccc" stroke-width="1.3" fill="none" stroke-dasharray="0 0" style=""/></g><g class="divider" style=""><path d="M-41.6953125 24 C-21.125329229300732 24, -0.555345958601464 24, 41.6953125 24 M-41.6953125 24 C-18.52101109757991 24, 4.6532903048401835 24, 41.6953125 24" stroke="#ccc" stroke-width="1.3" fill="none" stroke-dasharray="0 0" style=""/></g></g><g class="node default" id="classId-EnemyBuilding-3265" transform="translate(638.3671875, 918)"><g class="basic label-container"><path d="M-67.0234375 -42 L67.0234375 -42 L67.0234375 42 L-67.0234375 42" stroke="none" stroke-width="0" fill="#1f2020" style=""/><path d="M-67.0234375 -42 C-16.19523588412956 -42, 34.63296573174088 -42, 67.0234375 -42 M-67.0234375 -42 C-17.28443971033353 -42, 32.45455807933294 -42, 67.0234375 -42 M67.0234375 -42 C67.0234375 -19.238791873963965, 67.0234375 3.5224162520720697, 67.0234375 42 M67.0234375 -42 C67.0234375 -16.422518979806764, 67.0234375 9.154962040386472, 67.0234375 42 M67.0234375 42 C19.43296326670061 42, -28.157510966598778 42, -67.0234375 42 M67.0234375 42 C34.35229957024688 42, 1.6811616404937553 42, -67.0234375 42 M-67.0234375 42 C-67.0234375 12.271329379322964, -67.0234375 -17.457341241354072, -67.0234375 -42 M-67.0234375 42 C-67.0234375 21.667519563872624, -67.0234375 1.3350391277452474, -67.0234375 -42" stroke="#ccc" stroke-width="1.3" fill="none" stroke-dasharray="0 0" style=""/></g><g class="annotation-group text" transform="translate(0, -18)"/><g class="label-group text" transform="translate(-55.0234375, -18)"><g class="label" style="font-weight: bolder" transform="translate(0,-12)"><foreignObject width="110.046875" height="24"><div xmlns="http://www.w3.org/1999/xhtml" style="display: table-cell; white-space: nowrap; line-height: 1.5; max-width: 162px; text-align: center;"><span class="nodeLabel markdown-node-label" style=""><p>EnemyBuilding</p></span></div></foreignObject></g></g><g class="members-group text" transform="translate(-55.0234375, 30)"/><g class="methods-group text" transform="translate(-55.0234375, 60)"/><g class="divider" style=""><path d="M-67.0234375 6 C-14.320206430645257 6, 38.383024638709486 6, 67.0234375 6 M-67.0234375 6 C-36.88699517443327 6, -6.750552848866526 6, 67.0234375 6" stroke="#ccc" stroke-width="1.3" fill="none" stroke-dasharray="0 0" style=""/></g><g class="divider" style=""><path d="M-67.0234375 24 C-28.1211877634439 24, 10.781061973112202 24, 67.0234375 24 M-67.0234375 24 C-17.57947750676722 24, 31.864482486465562 24, 67.0234375 24" stroke="#ccc" stroke-width="1.3" fill="none" stroke-dasharray="0 0" style=""/></g></g><g class="node default" id="classId-Enemy-3266" transform="translate(792.40625, 918)"><g class="basic label-container"><path d="M-37.015625 -42 L37.015625 -42 L37.015625 42 L-37.015625 42" stroke="none" stroke-width="0" fill="#1f2020" style=""/><path d="M-37.015625 -42 C-20.675365131545544 -42, -4.335105263091087 -42, 37.015625 -42 M-37.015625 -42 C-11.998255100323298 -42, 13.019114799353403 -42, 37.015625 -42 M37.015625 -42 C37.015625 -20.909039885397167, 37.015625 0.18192022920566586, 37.015625 42 M37.015625 -42 C37.015625 -24.326905471432873, 37.015625 -6.653810942865746, 37.015625 42 M37.015625 42 C15.761361157224844 42, -5.4929026855503125 42, -37.015625 42 M37.015625 42 C16.151464116851084 42, -4.712696766297832 42, -37.015625 42 M-37.015625 42 C-37.015625 8.758355500535366, -37.015625 -24.483288998929268, -37.015625 -42 M-37.015625 42 C-37.015625 10.04122151661879, -37.015625 -21.91755696676242, -37.015625 -42" stroke="#ccc" stroke-width="1.3" fill="none" stroke-dasharray="0 0" style=""/></g><g class="annotation-group text" transform="translate(0, -18)"/><g class="label-group text" transform="translate(-25.015625, -18)"><g class="label" style="font-weight: bolder" transform="translate(0,-12)"><foreignObject width="50.03125" height="24"><div xmlns="http://www.w3.org/1999/xhtml" style="display: table-cell; white-space: nowrap; line-height: 1.5; max-width: 101px; text-align: center;"><span class="nodeLabel markdown-node-label" style=""><p>Enemy</p></span></div></foreignObject></g></g><g class="members-group text" transform="translate(-25.015625, 30)"/><g class="methods-group text" transform="translate(-25.015625, 60)"/><g class="divider" style=""><path d="M-37.015625 6 C-15.329959732399953 6, 6.355705535200094 6, 37.015625 6 M-37.015625 6 C-12.035196245747557 6, 12.945232508504887 6, 37.015625 6" stroke="#ccc" stroke-width="1.3" fill="none" stroke-dasharray="0 0" style=""/></g><g class="divider" style=""><path d="M-37.015625 24 C-21.062736137539368 24, -5.109847275078735 24, 37.015625 24 M-37.015625 24 C-15.741616283228385 24, 5.5323924335432295 24, 37.015625 24" stroke="#ccc" stroke-width="1.3" fill="none" stroke-dasharray="0 0" style=""/></g></g></g></g></g></svg>